<svg id="Capa_1" enable-background="new 0 0 512 512" height="512" viewBox="0 0 512 512" width="512" xmlns="http://www.w3.org/2000/svg"><g><path d="m415.997 323.918h-383.988v-216.98c0-3.866 3.134-7 7-7h369.988c3.866 0 7 3.134 7 7z" fill="#4ea850"/><path d="m376.988 355.915h-369.988c-3.866 0-7-3.134-7-7v-209.98c0-3.866 3.134-7 7-7h369.988c3.866 0 7 3.134 7 7v209.98c0 3.866-3.134 7-7 7z" fill="#66bb6a"/><path d="m20 348.915v-209.98c0-3.866 3.134-7 7-7h-20c-3.866 0-7 3.134-7 7v209.98c0 3.866 3.134 7 7 7h20c-3.866 0-7-3.134-7-7z" fill="#5da85f"/><path d="m32.02 184.969c9.958-2.338 17.809-10.559 20.152-21.031h279.769c2.343 10.472 10.194 18.693 20.152 21.031v117.912c-9.958 2.338-17.809 10.559-20.152 21.031h-279.768c-2.343-10.472-10.194-18.693-20.152-21.031v-117.912z" fill="#4ea850"/><path d="m220.246 163.933h-56.379c-15.723 16.391-26.231 46.085-26.231 79.993s10.507 63.602 26.231 79.993h56.379c15.724-16.391 26.231-46.085 26.231-79.993s-10.507-63.603-26.231-79.993z" fill="#ffca28"/><path d="m205.201 239.571-22.253-7.538c-.83-.281-1.41-1.201-1.41-2.236v-10.182c0-2.513 1.819-4.558 4.054-4.558h12.007c2.236 0 4.055 2.045 4.055 4.558 0 4.267 3.458 7.726 7.726 7.726s7.726-3.458 7.726-7.726c0-10.437-7.834-19.021-17.784-19.92v-8.855c0-4.267-3.458-7.726-7.726-7.726s-7.726 3.458-7.726 7.726v8.855c-9.951.899-17.783 9.483-17.783 19.92v10.182c0 7.678 4.783 14.458 11.903 16.871l22.255 7.538c.83.282 1.409 1.2 1.409 2.235v7.112c0 3.424-2.53 6.211-5.64 6.211h-8.835c-3.11 0-5.64-2.786-5.64-6.211 0-4.267-3.458-7.726-7.726-7.726-4.267 0-7.726 3.458-7.726 7.726 0 10.786 7.723 19.73 17.783 21.369v9.059c0 4.267 3.458 7.726 7.726 7.726s7.726-3.458 7.726-7.726v-9.059c10.06-1.638 17.784-10.582 17.784-21.369v-7.112c0-7.68-4.784-14.46-11.905-16.87z" fill="#4ea850"/><circle cx="415.962" cy="316.024" fill="#f45d5d" r="96.038"/><path d="m368.054 383.933c-37.505-37.505-37.505-98.313 0-135.818 16.205-16.205 36.762-25.393 57.909-27.594-27.795-2.893-56.609 6.294-77.909 27.594-37.505 37.505-37.505 98.313 0 135.818 21.3 21.3 50.114 30.487 77.909 27.594-21.147-2.202-41.704-11.389-57.909-27.594z" fill="#db4d4d"/><path d="m431.961 332.022h31.872c8.836 0 15.999-7.163 15.999-15.999s-7.163-15.999-15.998-15.998h-31.872v-31.872c0-8.836-7.163-15.999-15.999-15.999-8.836 0-15.999 7.163-15.999 15.999v31.872h-31.872c-8.836 0-15.999 7.163-15.999 15.999 0 8.836 7.163 15.998 15.999 15.999h31.872v31.872c0 8.836 7.163 15.998 15.998 15.998 8.836 0 15.999-7.163 15.999-15.999z" fill="#f2fbff"/><g fill="#ffca28"><circle cx="80.016" cy="243.926" r="15.999"/><circle cx="303.996" cy="243.926" r="15.999"/></g></g></svg>